<svg xmlns="http://www.w3.org/2000/svg" width="139" height="40" viewBox="0 0 139 40">
  <g fill="#FEFEFE" fill-rule="evenodd">
    <path d="M4.37386667 31.2208254L2.75908739 31.2208254C1.42105586 31.2208254.335979279 30.1205079.335979279 28.7636825L.335979279 11.5154286C.335979279 10.1586032 1.42105586 9.05828571 2.75908739 9.05828571L4.10838919 9.05828571C5.44642072 9.05828571 6.5314973 10.1586032 6.5314973 11.5154286L6.5314973 29.0328889C6.5314973 30.2411429 5.56538468 31.2208254 4.37386667 31.2208254M38.4069523 39.764254L36.792173 39.764254C35.4541414 39.764254 34.3690649 38.6639365 34.3690649 37.3071111L34.3690649 2.97187302C34.3690649 1.61504762 35.4541414.514730159 36.792173.514730159L38.1414748.514730159C39.4795063.514730159 40.5645829 1.61504762 40.5645829 2.97187302L40.5645829 37.5763175C40.5645829 38.7845714 39.5984703 39.764254 38.4069523 39.764254M15.7182077 39.764254L14.1034284 39.764254C12.7653968 39.764254 11.6803203 38.6639365 11.6803203 37.3071111L11.6803203 2.97187302C11.6803203 1.61504762 12.7653968.514730159 14.1034284.514730159L15.4527302.514730159C16.7907617.514730159 17.8758383 1.61504762 17.8758383 2.97187302L17.8758383 37.5763175C17.8758383 38.7845714 16.9097257 39.764254 15.7182077 39.764254M49.7513559 31.2208254L48.1365766 31.2208254C46.798545 31.2208254 45.7134685 30.1205079 45.7134685 28.7636825L45.7134685 11.5154286C45.7134685 10.1586032 46.798545 9.05828571 48.1365766 9.05828571L49.4858784 9.05828571C50.8239099 9.05828571 51.9089865 10.1586032 51.9089865 11.5154286L51.9089865 29.0328889C51.9089865 30.2411429 50.9428739 31.2208254 49.7513559 31.2208254M27.0626113 31.915873L25.447832 31.915873C24.1098005 31.915873 23.0247239 30.8155556 23.0247239 29.4587302L23.0247239 12.7C23.0247239 11.3425397 24.1098005 10.2428571 25.447832 10.2428571L26.7971338 10.2428571C28.1351653 10.2428571 29.2202419 11.3425397 29.2202419 12.7L29.2202419 29.7279365C29.2202419 30.9361905 28.2541293 31.915873 27.0626113 31.915873"/>
    <path d="M7.21128243 8.04546032L5.93461126 5.23403175 5.91770586 5.23403175 4.65731396 8.04546032 7.21128243 8.04546032zM.305111261 11.6918095L5.56457072.224507937C5.61528694.122285714 5.73299865.0372063492 5.85008423.0372063492L6.01851216.0372063492C6.13559775.0372063492 6.25330946.122285714 6.30402568.224507937L11.5634851 11.6918095C11.6642914 11.9133968 11.5296743 12.1349841 11.2779716 12.1349841L9.41274189 12.1349841C9.11032297 12.1349841 8.97570586 12.0327619 8.82418333 11.7089524L8.2193455 10.3629206 3.6492509 10.3629206 3.04441306 11.7260952C2.96051216 11.9305397 2.77517883 12.1349841 2.43957523 12.1349841L.590624775 12.1349841C.338922072 12.1349841.204304955 11.9133968.305111261 11.6918095L.305111261 11.6918095zM24.7702383.0372063492C26.4507608.0372063492 27.6942473.565460317 28.8369275 1.62196825 28.9878239 1.75784127 28.9878239 1.96228571 28.8532068 2.09879365L27.5427248 3.47911111C27.4250131 3.59847619 27.2403059 3.59847619 27.1225941 3.47911111 26.5008509 2.91657143 25.677495 2.60990476 24.8541392 2.60990476 22.9557248 2.60990476 21.5607158 4.21180952 21.5607158 6.12038095 21.5607158 8.0111746 22.9726302 9.57879365 24.8710446 9.57879365 25.6605896 9.57879365 26.5177563 9.28926984 27.1225941 8.76101587 27.2403059 8.65879365 27.4588239 8.65879365 27.5596302 8.77815873L28.8701122 10.192127C28.9878239 10.3114921 28.9709185 10.5330794 28.8532068 10.6524444 27.7105266 11.7768889 26.2660536 12.3051429 24.7702383 12.3051429 21.4098194 12.3051429 18.7043284 9.59593651 18.7043284 6.18831746 18.7043284 2.78069841 21.4098194.0372063492 24.7702383.0372063492M38.750132.30984127C38.7670374.156190476 38.9179338.0374603175 39.0525509.0374603175L39.321159.0374603175C39.405686.0374603175 39.5565824.105396825 39.6072986.207619048L43.5055599 7.56825397 43.5387446 7.56825397 47.4370059.207619048C47.4877221.105396825 47.6386185.0374603175 47.7231455.0374603175L47.9917536.0374603175C48.1263707.0374603175 48.2772671.156190476 48.2941725.30984127L50.1932131 11.76C50.2263977 11.9815873 50.0755014 12.1346032 49.8738887 12.1346032L47.8909473 12.1346032C47.7394248 12.1346032 47.5885284 11.9987302 47.571623 11.8622222L46.8152626 6.59746032 46.7820779 6.59746032 43.9588752 12.1180952C43.9087851 12.2203175 43.7572626 12.3053968 43.6733617 12.3053968L43.3709428 12.3053968C43.2701365 12.3053968 43.1355194 12.2203175 43.0854293 12.1180952L40.2459473 6.59746032 40.2121365 6.59746032 39.4726815 11.8622222C39.4557761 11.9987302 39.321159 12.1346032 39.1533572 12.1346032L37.1704158 12.1346032C36.9688032 12.1346032 36.8179068 11.9815873 36.8517176 11.76L38.750132.30984127zM59.0646689.531365079C59.0646689.361206349 59.199286.207555556 59.3839932.207555556L66.3402545.207555556C66.5249617.207555556 66.6595788.361206349 66.6595788.531365079L66.6595788 2.38850794C66.6595788 2.55866667 66.5249617 2.71231746 66.3402545 2.71231746L61.6856329 2.71231746 61.6856329 4.82533333 65.5168986 4.82533333C65.6853266 4.82533333 65.836223 4.97834921 65.836223 5.14914286L65.836223 7.00628571C65.836223 7.1935873 65.6853266 7.33009524 65.5168986 7.33009524L61.6856329 7.33009524 61.6856329 9.6304127 66.3402545 9.6304127C66.5249617 9.6304127 66.6595788 9.78342857 66.6595788 9.9535873L66.6595788 11.8113651C66.6595788 11.9815238 66.5249617 12.1351746 66.3402545 12.1351746L59.3839932 12.1351746C59.199286 12.1351746 59.0646689 11.9815238 59.0646689 11.8113651L59.0646689.531365079z" transform="translate(72.005 13.968)"/>
  </g>
</svg>
