<svg xmlns="http://www.w3.org/2000/svg" width="60" height="60" viewBox="0 0 60 60">
  <g fill="none">
    <circle cx="30" cy="30" r="30" fill="#F0F0F0"/>
    <path fill="#0D1C2E" d="M37,38 C37,38.552 36.553,39 36,39 C35.447,39 35,38.552 35,38 C35,35.243 32.757,33 30,33 C27.243,33 25,35.243 25,38 C25,38.552 24.553,39 24,39 C23.447,39 23,38.552 23,38 C23,34.14 26.141,31 30,31 C33.859,31 37,34.14 37,38 M30,23 C31.103,23 32,23.897 32,25 C32,26.103 31.103,27 30,27 C28.897,27 28,26.103 28,25 C28,23.897 28.897,23 30,23 M30,29 C32.206,29 34,27.206 34,25 C34,22.794 32.206,21 30,21 C27.794,21 26,22.794 26,25 C26,27.206 27.794,29 30,29" opacity=".145"/>
  </g>
</svg>
